<svg width="144" height="115" viewBox="0 0 144 115" fill="none" xmlns="http://www.w3.org/2000/svg">
<path d="M133.2 43.125H106.483C109.339 49.7712 108.085 57.7695 102.658 63.1871L72 93.7924V104.219C72 110.173 76.8352 115 82.8 115H133.2C139.165 115 144 110.173 144 104.219V53.9062C144 47.9519 139.165 43.125 133.2 43.125ZM108 84.4531C105.019 84.4531 102.6 82.0386 102.6 79.0625C102.6 76.0842 105.019 73.6719 108 73.6719C110.981 73.6719 113.4 76.0842 113.4 79.0625C113.4 82.0386 110.981 84.4531 108 84.4531ZM97.5667 42.5186L58.2075 3.22764C53.8965 -1.07588 46.9057 -1.07588 42.5947 3.22764L3.23325 42.5186C-1.07775 46.8221 -1.07775 53.8007 3.23325 58.1042L42.5925 97.3974C46.9035 101.701 53.8942 101.701 58.2052 97.3974L97.5667 58.1064C101.878 53.8007 101.878 46.8221 97.5667 42.5186V42.5186ZM21.6 55.7031C18.6187 55.7031 16.2 53.2886 16.2 50.3125C16.2 47.3342 18.6187 44.9219 21.6 44.9219C24.5812 44.9219 27 47.3342 27 50.3125C27 53.2886 24.5812 55.7031 21.6 55.7031ZM50.4 84.4531C47.4187 84.4531 45 82.0386 45 79.0625C45 76.0842 47.4187 73.6719 50.4 73.6719C53.3812 73.6719 55.8 76.0842 55.8 79.0625C55.8 82.0386 53.3812 84.4531 50.4 84.4531ZM50.4 55.7031C47.4187 55.7031 45 53.2886 45 50.3125C45 47.3342 47.4187 44.9219 50.4 44.9219C53.3812 44.9219 55.8 47.3342 55.8 50.3125C55.8 53.2886 53.3812 55.7031 50.4 55.7031ZM50.4 26.9531C47.4187 26.9531 45 24.5386 45 21.5625C45 18.5842 47.4187 16.1719 50.4 16.1719C53.3812 16.1719 55.8 18.5842 55.8 21.5625C55.8 24.5386 53.3812 26.9531 50.4 26.9531ZM79.2 55.7031C76.2187 55.7031 73.8 53.2886 73.8 50.3125C73.8 47.3342 76.2187 44.9219 79.2 44.9219C82.1812 44.9219 84.6 47.3342 84.6 50.3125C84.6 53.2886 82.1812 55.7031 79.2 55.7031Z" fill="#FFE818"/>
</svg>
